<?xml version="1.0" standalone="no"?>
<!DOCTYPE svg PUBLIC "-//W3C//DTD SVG 20010904//EN"
 "http://www.w3.org/TR/2001/REC-SVG-20010904/DTD/svg10.dtd">
<svg version="1.0" xmlns="http://www.w3.org/2000/svg"
 width="120.000000pt" height="110.000000pt" viewBox="0 0 120.000000 110.000000"
 preserveAspectRatio="xMidYMid meet">
<metadata>
Created by potrace 1.10, written by Peter Selinger 2001-2011
</metadata>
<g transform="translate(0.000000,110.000000) scale(0.100000,-0.100000)"
fill="#000000" stroke="none">
<path d="M372 1050 c-61 -13 -139 -58 -173 -101 -48 -61 -68 -118 -75 -215 -3
-49 -10 -99 -16 -110 -6 -13 -9 -79 -6 -160 3 -123 6 -145 27 -189 31 -62 54
-88 116 -134 79 -58 111 -64 362 -63 178 1 229 4 252 16 16 9 31 19 33 24 1 4
24 23 50 41 89 63 126 139 134 273 3 51 10 103 16 114 11 23 9 45 -15 204 -16
110 -38 158 -99 217 -81 79 -113 87 -353 90 -116 1 -229 -2 -253 -7z m509 -37
c109 -49 179 -150 179 -257 l0 -61 -50 3 c-47 4 -50 6 -44 25 3 12 10 26 15
32 16 17 10 74 -11 95 -11 11 -24 21 -30 21 -5 1 -16 2 -22 3 -7 1 -20 -1 -29
-5 -8 -4 -34 -10 -57 -13 -23 -3 -46 -7 -51 -10 -14 -9 -74 15 -103 42 -37 34
-75 36 -118 7 -28 -19 -46 -24 -86 -22 -60 2 -79 -10 -95 -62 l-11 -37 -40 19
c-48 24 -65 17 -82 -35 -16 -45 -7 -61 44 -78 22 -7 40 -17 40 -21 0 -4 3 -14
6 -23 5 -14 1 -14 -42 -1 -27 8 -73 15 -101 15 l-53 0 0 83 c0 65 5 92 24 132
40 85 118 144 221 169 11 2 117 4 235 3 195 -2 219 -4 261 -24z m-212 -155
c28 -29 29 -32 13 -44 -24 -19 -6 -17 23 2 18 12 28 13 44 4 15 -8 27 -8 42 0
11 7 32 9 45 6 15 -4 36 0 53 10 34 20 57 14 73 -21 10 -22 8 -30 -9 -53 -32
-44 -122 -93 -168 -91 -24 1 -56 -7 -80 -20 -31 -17 -57 -21 -127 -21 -48 0
-90 5 -93 10 -3 6 -11 10 -16 10 -21 0 4 -21 52 -44 45 -21 53 -22 87 -10 23
7 41 9 46 3 16 -15 33 -10 39 11 6 22 36 27 56 8 10 -11 14 -10 22 4 9 16 63
48 82 48 5 0 27 14 49 31 21 17 41 29 44 26 13 -12 -157 -127 -189 -127 -11 0
-13 -16 -10 -82 3 -67 8 -86 24 -100 11 -9 15 -19 11 -22 -5 -3 -19 5 -31 18
-30 32 -145 61 -205 52 -32 -5 -48 -14 -65 -36 -15 -21 -33 -32 -62 -36 -47
-8 -74 -32 -101 -92 -14 -31 -24 -42 -35 -38 -8 3 -30 -6 -49 -20 -46 -36 -35
-43 13 -9 l38 27 -33 -30 c-24 -21 -29 -31 -19 -35 14 -5 79 63 103 108 28 53
39 63 76 69 24 4 50 18 71 40 45 44 78 50 166 31 57 -13 79 -24 106 -52 32
-33 55 -37 55 -9 0 7 -11 24 -24 37 -16 17 -25 39 -28 77 -3 28 -1 52 3 52 5
0 10 -24 10 -52 1 -48 2 -49 8 -18 6 35 7 35 20 12 7 -13 15 -21 19 -18 3 3
-4 16 -16 29 -34 36 -33 69 3 87 17 9 50 28 74 44 47 30 126 47 160 34 13 -4
26 -6 29 -4 4 2 8 -22 9 -54 1 -46 -2 -60 -15 -65 -9 -3 -18 -1 -20 5 -7 20
-76 -2 -148 -47 l-72 -44 22 -52 c11 -29 23 -54 26 -57 3 -3 16 3 30 13 22 16
23 17 4 17 -14 0 -24 11 -33 36 -7 19 -11 37 -9 38 1 1 26 16 53 32 60 35 103
46 128 32 17 -9 19 -19 15 -101 -3 -67 -10 -103 -25 -132 -21 -39 -99 -125
-115 -125 -4 0 -8 26 -8 58 0 31 -3 66 -6 78 -3 12 1 27 10 37 25 25 19 30
-14 10 -29 -17 -40 -46 -21 -57 8 -5 7 -154 -2 -162 -8 -9 -113 -24 -163 -24
-51 0 -59 5 -55 32 0 4 -6 5 -14 2 -10 -4 -15 0 -15 11 0 11 -5 15 -15 11 -8
-3 -15 -1 -15 4 0 6 -3 10 -7 10 -5 0 -9 -14 -9 -32 -1 -27 0 -29 11 -15 12
16 14 16 36 -3 l24 -20 -100 1 c-167 3 -228 14 -288 53 -57 36 -79 62 -118
136 -20 40 -24 63 -27 189 l-4 143 78 -6 c166 -14 199 -18 204 -26 3 -4 28
-21 55 -37 40 -24 50 -35 48 -55 -1 -24 0 -25 34 -18 38 9 130 -2 162 -19 11
-6 23 -11 28 -11 4 1 -8 9 -27 20 -19 10 -62 22 -95 25 -61 7 -95 19 -95 34 0
4 17 5 38 1 23 -4 46 -2 62 6 14 7 36 15 50 18 14 3 34 12 45 20 13 10 -6 6
-50 -9 -109 -40 -194 -22 -269 53 l-36 38 19 50 c11 27 25 69 33 94 12 41 16
45 48 48 25 2 47 -5 73 -22 54 -37 93 -56 114 -56 10 0 -11 14 -46 30 -35 17
-60 34 -55 39 35 30 69 51 84 51 10 0 32 -14 49 -32z m-346 -92 c10 3 17 1 17
-5 0 -7 -7 -14 -15 -17 -10 -4 -13 -14 -9 -33 5 -24 4 -25 -10 -8 -10 14 -21
17 -38 12 -22 -7 -23 -7 -5 12 13 15 16 29 12 49 l-7 29 19 -23 c12 -15 25
-21 36 -16z m447 -119 c0 -8 -3 -17 -7 -20 -9 -9 -34 13 -27 24 8 14 34 11 34
-4z m-186 -42 c-4 -8 -10 -12 -15 -9 -14 8 -10 24 6 24 9 0 12 -6 9 -15z m96
5 c0 -5 -2 -10 -4 -10 -3 0 -8 5 -11 10 -3 6 -1 10 4 10 6 0 11 -4 11 -10z
m120 -224 c0 -3 -4 -8 -10 -11 -5 -3 -10 -1 -10 4 0 6 5 11 10 11 6 0 10 -2
10 -4z"/>
<path d="M904 815 c-10 -8 -14 -15 -8 -15 5 0 19 7 30 15 10 8 14 15 8 15 -5
0 -19 -7 -30 -15z"/>
<path d="M456 803 c-12 -12 -6 -61 9 -73 18 -15 103 -6 120 12 7 8 5 9 -7 5
-44 -16 -89 -19 -103 -7 -15 13 -21 51 -7 49 16 -1 46 -18 34 -18 -7 -1 -10
-6 -7 -11 5 -8 11 -8 20 0 7 6 26 8 42 5 21 -5 24 -4 13 4 -8 6 -23 11 -33 11
-10 0 -31 7 -46 15 -16 8 -31 11 -35 8z"/>
<path d="M333 573 c9 -2 23 -2 30 0 6 3 -1 5 -18 5 -16 0 -22 -2 -12 -5z"/>
<path d="M155 544 c-16 -14 -21 -21 -10 -15 30 14 61 40 50 41 -5 0 -23 -12
-40 -26z"/>
<path d="M481 488 c0 -9 -4 -25 -7 -35 -5 -17 -5 -17 6 0 6 10 9 25 7 35 -4
15 -5 15 -6 0z"/>
<path d="M438 473 c-27 -32 -28 -40 -7 -39 20 1 39 21 39 44 0 17 -14 15 -32
-5z"/>
<path d="M315 439 c-44 -22 -87 -47 -95 -56 -13 -15 -12 -15 12 0 15 9 30 17
32 17 8 0 -33 -67 -50 -80 -7 -7 -14 -17 -14 -22 0 -18 22 5 56 58 27 43 47
60 94 84 55 28 73 41 53 39 -5 0 -44 -18 -88 -40z"/>
<path d="M817 316 c-3 -8 -1 -16 6 -19 17 -5 -7 -54 -52 -106 l-38 -44 -46 12
c-31 9 -44 17 -40 27 6 16 -40 64 -63 64 -9 0 -32 10 -51 21 -31 20 -39 20
-92 10 -57 -11 -147 -48 -139 -57 3 -2 22 3 44 10 21 8 65 22 97 32 56 17 58
16 80 -4 12 -11 41 -25 65 -31 35 -10 42 -16 42 -36 0 -20 9 -29 43 -44 70
-32 71 -31 97 8 13 20 39 55 57 77 28 36 31 44 18 54 -12 10 -13 16 -4 26 9
11 8 14 -4 14 -8 0 -17 -6 -20 -14z"/>
<path d="M816 193 c-42 -62 -54 -96 -22 -62 18 18 80 129 72 129 -3 0 -26 -30
-50 -67z"/>
<path d="M450 239 c0 -6 8 -8 18 -5 12 4 25 -1 36 -13 17 -18 17 -21 0 -45 -9
-15 -14 -29 -11 -32 3 -3 13 8 22 25 18 35 18 35 48 19 20 -10 21 -10 8 5 -7
10 -18 17 -23 17 -5 0 -21 9 -35 20 -28 21 -63 27 -63 9z"/>
<path d="M365 224 c-22 -6 -56 -19 -75 -28 -28 -12 -31 -15 -12 -16 14 0 22
-6 22 -17 1 -12 8 -5 20 17 l19 35 -2 -30 c-2 -17 -7 -36 -11 -43 -4 -7 -2
-12 4 -12 12 0 100 79 100 90 0 15 -25 17 -65 4z m25 -11 c-1 -15 -39 -58 -46
-51 -8 9 22 58 36 58 6 0 10 -3 10 -7z"/>
<path d="M461 215 c1 -19 18 -51 18 -35 0 8 -4 22 -9 30 -5 8 -9 11 -9 5z"/>
<path d="M430 189 c0 -9 7 -22 15 -29 19 -16 19 0 0 26 -12 16 -14 16 -15 3z"/>
<path d="M540 145 c-7 -9 -11 -17 -9 -20 3 -2 10 5 17 15 14 24 10 26 -8 5z"/>
<path d="M467 133 c-4 -3 -7 -11 -7 -17 0 -6 5 -5 12 2 6 6 9 14 7 17 -3 3 -9
2 -12 -2z"/>
</g>
</svg>
